<svg xmlns="http://www.w3.org/2000/svg" viewBox="0 0 128 128" width="128" height="128">
  <defs>
    <linearGradient id="bgGrad" x1="0%" y1="0%" x2="100%" y2="100%">
      <stop offset="0%" stop-color="#2563EB" />
      <stop offset="100%" stop-color="#1D4ED8" />
    </linearGradient>
    <linearGradient id="shieldGrad" x1="0%" y1="0%" x2="100%" y2="100%">
      <stop offset="0%" stop-color="#60A5FA" />
      <stop offset="100%" stop-color="#3B82F6" />
    </linearGradient>
  </defs>
  <!-- Rounded Base -->
  <rect x="8" y="8" width="112" height="112" rx="28" fill="url(#bgGrad)" />
  
  <!-- Outer Shield Silhouette -->
  <path d="M64 26 L94 38 V64 C94 82 81 98 64 104 C47 98 34 82 34 64 V38 Z" fill="#0F172A" opacity="0.2" />
  <path d="M64 24 L92 36 V62 C92 79 80 95 64 101 C48 95 36 79 36 62 V36 Z" fill="#FFFFFF" />

  <!-- Inner Lock & Keyhole -->
  <path d="M52 54 V46 C52 39.4 57.4 34 64 34 C70.6 34 76 39.4 76 46 V54" fill="none" stroke="#2563EB" stroke-width="6" stroke-linecap="round" />
  <rect x="48" y="52" width="32" height="26" rx="6" fill="#2563EB" />
  <circle cx="64" cy="63" r="3.5" fill="#FFFFFF" />
  <path d="M64 65 V72" stroke="#FFFFFF" stroke-width="3" stroke-linecap="round" />
  
  <!-- Electric Pulse Accent -->
  <circle cx="90" cy="38" r="5" fill="#38BDF8" />
</svg>
